<svg xmlns="http://www.w3.org/2000/svg" viewBox="0 0 229.06 163.45"><defs><style>.cls-1{fill:#fff;}.cls-2{fill:#dd1f28;}</style></defs><g id="Layer_2" data-name="Layer 2"><g id="Layer_1-2" data-name="Layer 1"><path class="cls-1" d="M5,11.85a.89.89,0,0,0,.32.75,3.31,3.31,0,0,0,1.44.34l2.94.25a8.64,8.64,0,0,1,2.46.54,4.52,4.52,0,0,1,1.58,1.06,3.62,3.62,0,0,1,.83,1.48,6.77,6.77,0,0,1,.24,1.84v.54A4.46,4.46,0,0,1,13,22.55q-1.76,1.24-5.52,1.24H2.08L0,23.73.7,19.8l3.52.05,3.45,0a4.72,4.72,0,0,0,1.8-.23.91.91,0,0,0,.46-.92,1,1,0,0,0-.32-.82,2.69,2.69,0,0,0-1.43-.33l-3.13-.23a5.15,5.15,0,0,1-3.77-1.53A5,5,0,0,1,.16,12.52v-.61A5.48,5.48,0,0,1,.54,9.82,3.83,3.83,0,0,1,1.77,8.27,6.15,6.15,0,0,1,4,7.3,14.08,14.08,0,0,1,7.35,7h2.78L12,7c.72,0,1.53,0,2.45,0L13.73,11l-2.53,0-1.87,0H7a5.65,5.65,0,0,0-1.6.16A.74.74,0,0,0,5,11.85Z"/><path class="cls-1" d="M22.48,11v6a8.15,8.15,0,0,0,.1,1.36,1.56,1.56,0,0,0,.38.83,1.51,1.51,0,0,0,.79.42,6.56,6.56,0,0,0,1.32.11h1.61l.87,0h.55l-.76,4h-.53l-.81,0H24.43a16.9,16.9,0,0,1-3.51-.3,4.44,4.44,0,0,1-2.16-1.06,4,4,0,0,1-1.07-2,15.31,15.31,0,0,1-.28-3.23v-14l5.07-.73V7H28.3l-.77,4Z"/><path class="cls-1" d="M45.48,20.44A5.48,5.48,0,0,1,45.29,22a2.28,2.28,0,0,1-.62,1,2.63,2.63,0,0,1-1.14.54,7.52,7.52,0,0,1-1.69.16H36.19a11.44,11.44,0,0,1-3-.33,4.83,4.83,0,0,1-1.93-1,3.72,3.72,0,0,1-1.06-1.58,6.48,6.48,0,0,1-.32-2.1v-.67a4.5,4.5,0,0,1,1.6-3.85A8.13,8.13,0,0,1,36.38,13a11.06,11.06,0,0,1,2.57.25,7.16,7.16,0,0,1,1.61.61v-.35a5.4,5.4,0,0,0-.11-1.15,1.63,1.63,0,0,0-.45-.81,2,2,0,0,0-1-.5,7.29,7.29,0,0,0-1.67-.16H34.54l-1.64,0-1.54,0L32.1,7c.62,0,1.39,0,2.33,0l3.26,0c2.66,0,4.62.47,5.89,1.39s1.9,2.48,1.9,4.65Zm-10.7-2a1.63,1.63,0,0,0,.51,1.34,3,3,0,0,0,1.85.42h3.39V18.33A1.84,1.84,0,0,0,40,16.88a3.61,3.61,0,0,0-2.22-.46h-.44a3.55,3.55,0,0,0-2,.4,1.63,1.63,0,0,0-.53,1.38Z"/><path class="cls-1" d="M56.5,7h2c.76,0,1.74,0,3,.07l-.77,4-1-.05-.89,0-.94,0H56.69a9,9,0,0,0-1.63.13,1.87,1.87,0,0,0-1,.51,2.18,2.18,0,0,0-.52,1.09,10.17,10.17,0,0,0-.14,1.85v1.7a10.17,10.17,0,0,0,.14,1.85,2,2,0,0,0,.53,1.08,1.9,1.9,0,0,0,1,.51,8,8,0,0,0,1.6.13h2.44c.72,0,1.51,0,2.38-.06l-.76,4-2.38.05H56.56a15.67,15.67,0,0,1-3.94-.41,5.91,5.91,0,0,1-2.56-1.31,5,5,0,0,1-1.39-2.33,13.11,13.11,0,0,1-.41-3.51v-1.7a12.16,12.16,0,0,1,.43-3.48A5.14,5.14,0,0,1,50.11,8.7a5.93,5.93,0,0,1,2.56-1.32A15,15,0,0,1,56.5,7Z"/><path class="cls-1" d="M69.18,13.09,74.67,7h6l-7.09,7.5,7.72,9.2H75.15l-6-7.31v7.31H64.1V0h5.08Z"/><path class="cls-1" d="M87.55,1.94l3.67-.66V6.2h6.64l-.63,3h-6v8.39a10.87,10.87,0,0,0,.13,1.89,2.11,2.11,0,0,0,.47,1.12,1.81,1.81,0,0,0,1,.52,8.35,8.35,0,0,0,1.66.14h3.18l-.63,3H94.51A15.63,15.63,0,0,1,91.06,24a4.56,4.56,0,0,1-2.13-1.07,4,4,0,0,1-1.08-2,13.86,13.86,0,0,1-.3-3.14Z"/><path class="cls-1" d="M103.84,16.58A13.94,13.94,0,0,0,104,19a2.7,2.7,0,0,0,.63,1.43,2.43,2.43,0,0,0,1.31.72,10.19,10.19,0,0,0,2.23.19h2.57c1,0,2.38,0,4-.07l-.63,3-1.85.05c-.52,0-1,0-1.42,0h-2.71a11.62,11.62,0,0,1-4-.58,5.61,5.61,0,0,1-2.45-1.64,5.83,5.83,0,0,1-1.21-2.58,16.76,16.76,0,0,1-.31-3.38V14.21a17.77,17.77,0,0,1,.33-3.59,6.28,6.28,0,0,1,1.22-2.69,5.68,5.68,0,0,1,2.49-1.69,11.93,11.93,0,0,1,4.14-.6,11.32,11.32,0,0,1,3.82.55,6,6,0,0,1,2.35,1.46,5,5,0,0,1,1.17,2.14,9.76,9.76,0,0,1,.31,2.49v.53a11.43,11.43,0,0,1-.14,2,2.61,2.61,0,0,1-.45,1.14,1.45,1.45,0,0,1-.79.52,4.63,4.63,0,0,1-1.14.12Zm4.33-8a9.45,9.45,0,0,0-2.23.21,2.39,2.39,0,0,0-1.31.79,3.17,3.17,0,0,0-.63,1.59,17,17,0,0,0-.16,2.62h8.7V12.56a8.26,8.26,0,0,0-.19-1.94,2.41,2.41,0,0,0-.7-1.24,3,3,0,0,0-1.35-.64A9.62,9.62,0,0,0,108.17,8.54Z"/><path class="cls-1" d="M134.24,21.27a3,3,0,0,1-.77,2.34,4.38,4.38,0,0,1-2.79.66h-5.24q-3.68,0-5.26-1.34a5,5,0,0,1-1.59-4v-.77c0-2,.57-3.36,1.73-4.19s3-1.26,5.4-1.26A12.82,12.82,0,0,1,129,13a6,6,0,0,1,1.75.72V12.67a8.44,8.44,0,0,0-.12-1.52,1.88,1.88,0,0,0-.6-1.08,3,3,0,0,0-1.36-.67,10.33,10.33,0,0,0-2.43-.23l-3.13,0-2.85.05.67-3,2.41,0,2.9,0q4.23,0,6.12,1.49A5.25,5.25,0,0,1,134.24,12ZM122,18.85a2.26,2.26,0,0,0,.74,1.84,4.3,4.3,0,0,0,2.69.61h5.31V18.09a4.39,4.39,0,0,0-.14-1.16,1.38,1.38,0,0,0-.56-.78,3,3,0,0,0-1.22-.44,13.43,13.43,0,0,0-2.14-.14h-.8a12.36,12.36,0,0,0-1.9.12,2.86,2.86,0,0,0-1.19.42,1.54,1.54,0,0,0-.61.79,3.53,3.53,0,0,0-.18,1.22Z"/><path class="cls-1" d="M138.3,24.27V11.51q0-3.21,1.83-4.54a9.31,9.31,0,0,1,5.44-1.33,9.44,9.44,0,0,1,3.28.55A4.58,4.58,0,0,1,151,7.67a4.53,4.53,0,0,1,2.17-1.48,11.11,11.11,0,0,1,8.73.78c1.24.89,1.85,2.4,1.85,4.54V24.27h-3.66v-12a11.62,11.62,0,0,0-.09-1.54,2.21,2.21,0,0,0-.46-1.12,2.17,2.17,0,0,0-1.08-.68,7,7,0,0,0-2-.23,7.31,7.31,0,0,0-1.89.2,2.25,2.25,0,0,0-1.08.59,2,2,0,0,0-.51,1,6.43,6.43,0,0,0-.12,1.31V24.27H149.2v-12a11.62,11.62,0,0,0-.09-1.54,2,2,0,0,0-1.53-1.8,8.85,8.85,0,0,0-4,0,2.12,2.12,0,0,0-1.08.68,2.38,2.38,0,0,0-.44,1.12,13.81,13.81,0,0,0-.08,1.54v12Z"/><path class="cls-1" d="M188.1,21.27a3,3,0,0,1-.77,2.34,4.39,4.39,0,0,1-2.8.66h-5.24c-2.44,0-4.2-.45-5.26-1.34a5,5,0,0,1-1.59-4v-.77a4.82,4.82,0,0,1,1.73-4.19c1.15-.84,3-1.26,5.4-1.26a12.9,12.9,0,0,1,3.29.33,5.89,5.89,0,0,1,1.74.72V12.67a8.44,8.44,0,0,0-.12-1.52,1.93,1.93,0,0,0-.59-1.08,3,3,0,0,0-1.37-.67,10.23,10.23,0,0,0-2.42-.23l-3.13,0-2.85.05.66-3,2.41,0,2.91,0q4.22,0,6.11,1.49A5.23,5.23,0,0,1,188.1,12Zm-12.23-2.42a2.26,2.26,0,0,0,.73,1.84,4.34,4.34,0,0,0,2.69.61h5.31V18.09a4,4,0,0,0-.14-1.16,1.38,1.38,0,0,0-.56-.78,2.87,2.87,0,0,0-1.22-.44,13.3,13.3,0,0,0-2.13-.14h-.8a12.5,12.5,0,0,0-1.91.12,2.91,2.91,0,0,0-1.19.42,1.59,1.59,0,0,0-.61.79,3.55,3.55,0,0,0-.17,1.22Z"/><path class="cls-1" d="M200.51,5.64a15.33,15.33,0,0,1,3.8.41,5.33,5.33,0,0,1,2.57,1.41,5.93,5.93,0,0,1,1.45,2.71,16.55,16.55,0,0,1,.46,4.28V16a18.3,18.3,0,0,1-.37,4,6.09,6.09,0,0,1-1.29,2.73,5.54,5.54,0,0,1-2.54,1.59,13.51,13.51,0,0,1-4.12.52,8.38,8.38,0,0,1-2.78-.4,5.32,5.32,0,0,1-1.83-1v7h-3.71V14.28a15.66,15.66,0,0,1,.47-4.15,5.9,5.9,0,0,1,1.49-2.65,5.73,5.73,0,0,1,2.59-1.42A14.86,14.86,0,0,1,200.51,5.64Zm0,16.19a11.34,11.34,0,0,0,2.36-.21,2.53,2.53,0,0,0,1.4-.84,3.59,3.59,0,0,0,.66-1.77,21.77,21.77,0,0,0,.16-3V14.45a20.54,20.54,0,0,0-.18-3.06,3.44,3.44,0,0,0-.68-1.74,2.41,2.41,0,0,0-1.39-.81,14.26,14.26,0,0,0-4.64,0,2.55,2.55,0,0,0-1.43.79,3.39,3.39,0,0,0-.72,1.69,19.05,19.05,0,0,0-.19,3v2.48a12.31,12.31,0,0,0,.21,2.51,3.25,3.25,0,0,0,.74,1.56,2.73,2.73,0,0,0,1.43.79A10.89,10.89,0,0,0,200.47,21.83Z"/><path class="cls-1" d="M220.78,5.64a15.33,15.33,0,0,1,3.8.41,5.33,5.33,0,0,1,2.57,1.41,5.93,5.93,0,0,1,1.45,2.71,16.55,16.55,0,0,1,.46,4.28V16a18.3,18.3,0,0,1-.37,4,6,6,0,0,1-1.29,2.73,5.54,5.54,0,0,1-2.54,1.59,13.51,13.51,0,0,1-4.12.52,8.34,8.34,0,0,1-2.78-.4,5.32,5.32,0,0,1-1.83-1v7h-3.71V14.28a15.66,15.66,0,0,1,.47-4.15,5.9,5.9,0,0,1,1.49-2.65A5.78,5.78,0,0,1,217,6.06,14.86,14.86,0,0,1,220.78,5.64Zm0,16.19a11.28,11.28,0,0,0,2.36-.21,2.53,2.53,0,0,0,1.4-.84,3.5,3.5,0,0,0,.66-1.77,21.77,21.77,0,0,0,.16-3V14.45a20.54,20.54,0,0,0-.18-3.06,3.44,3.44,0,0,0-.68-1.74,2.41,2.41,0,0,0-1.4-.81,11.25,11.25,0,0,0-2.32-.19,11.41,11.41,0,0,0-2.31.19,2.55,2.55,0,0,0-1.43.79,3.39,3.39,0,0,0-.72,1.69,19.05,19.05,0,0,0-.19,3v2.48a12.31,12.31,0,0,0,.21,2.51,3.25,3.25,0,0,0,.74,1.56,2.77,2.77,0,0,0,1.43.79A10.89,10.89,0,0,0,220.74,21.83Z"/><path class="cls-2" d="M113.91,163.45a4.61,4.61,0,0,1-2.72-.93l-.09-.09C42.05,104.55,50.83,60.82,51.26,59A4.36,4.36,0,0,1,52.37,57c16.19-16.36,53-18.24,61-18.5h1.2c7.92.26,44.75,2.14,61,18.5A4,4,0,0,1,176.74,59c.43,1.79,9.21,45.52-59.93,103.4l-.08.09A4.88,4.88,0,0,1,113.91,163.45ZM59.27,62c-.34,3.07-.68,12.19,4.09,25.66,5.37,15.09,18.5,38.62,50.55,66.07C170.35,105.4,169.32,68.83,168.56,62,156.28,50.93,128.75,47.26,114,46.92h-.17C99.17,47.26,71.55,50.93,59.27,62Z"/><path class="cls-1" d="M114.17,42.66h0c4.52.09,42.79,1.54,58.39,17.22,0,0,9.47,42.37-58.56,99.23v.17l-.09-.09-.08.09v-.17C45.89,102.33,55.35,60,55.35,60,71,44.28,109.23,42.83,113.74,42.75H114a.25.25,0,0,1,.17-.09"/><path class="cls-2" d="M168.39,61.5s-17-15.17-54.22-15.26H114C76.75,46.33,59.78,61.5,59.78,61.5c-2.47,14.58,5.37,30.26,5,30.69A112.49,112.49,0,0,1,81,83.92a126.49,126.49,0,0,1-3.07-13.13c10.74-6.56,23.87-6.73,23.87-6.73v79.36c4,3.58,10.83,9.38,12.1,10.49v.17L114,154l.08.09v-.17c1.28-1.11,8.1-6.91,12.11-10.49V64.06s13.13.08,23.87,6.73A126.49,126.49,0,0,1,147,83.92a112.49,112.49,0,0,1,16.2,8.27C162.93,91.76,170.86,76.08,168.39,61.5Z"/></g></g></svg>